<svg width="140" height="140" viewBox="0 0 140 140" fill="none" xmlns="http://www.w3.org/2000/svg">
<g clip-path="url(#clip0)">
<path d="M139.57 43.9311C115.336 12.8578 116.369 13.6363 115.075 13.5094L77.1402 8.39972C67.5776 7.11156 61.0821 8.78581 57.7654 9.08577C56.6522 9.23562 55.8715 10.2596 56.0211 11.3728C56.1709 12.486 57.1963 13.2683 58.3081 13.117C61.6719 12.8086 67.7048 11.2339 76.5972 12.431L102.647 15.9397C100.698 16.337 71.9504 22.1951 69.9994 22.5927L37.3522 15.9397L48.637 14.4197C49.7501 14.2699 50.5308 13.2458 50.3812 12.1327C50.2314 11.0192 49.2052 10.2383 48.0942 10.3884L24.9259 13.5089C24.9226 13.5092 24.9194 13.5097 24.9161 13.5102L24.8854 13.5143C24.8543 13.5187 24.8239 13.5256 24.793 13.5313C24.7731 13.5351 24.7526 13.5379 24.7329 13.5422C24.7162 13.5458 24.6995 13.5493 24.6831 13.5532C24.6599 13.5589 24.6369 13.5658 24.6139 13.572C24.5784 13.5819 24.5428 13.5915 24.5078 13.6032C24.4933 13.6081 24.4797 13.6142 24.4652 13.6193C24.4589 13.6215 24.4526 13.624 24.4466 13.6265C24.4263 13.6341 24.4053 13.6412 24.3853 13.6492C24.3487 13.6642 24.3131 13.6809 24.2776 13.6981C24.262 13.7055 24.2467 13.7123 24.2314 13.72C24.2142 13.7287 24.1975 13.7372 24.1808 13.7462C24.1647 13.755 24.1494 13.7648 24.1332 13.7744C23.25 14.289 23.6812 14.3254 0.430116 43.9309C-0.0533194 44.551 -0.136444 45.394 0.217383 46.0965C1.03605 47.7207 -1.14132 44.5147 43.743 104.093C44.4195 104.99 45.6948 105.168 46.5916 104.492C47.4882 103.815 47.6665 102.54 46.9903 101.643L7.56653 49.3903L39.4224 59.4243C40.1864 61.4393 63.5201 122.984 63.9529 124.125L52.7276 109.247C52.0511 108.351 50.776 108.172 49.8789 108.849C48.982 109.525 48.804 110.801 49.4802 111.697C61.2344 127.273 62.4455 128.887 62.5292 128.982C64.0142 130.655 66.068 131.714 68.0323 132.045C68.323 132.095 71.7308 132.094 72.0158 132.038C74.4925 131.557 76.5846 130.158 77.5723 128.857L117.274 76.2363C117.95 75.3394 117.772 74.0641 116.875 73.3876C115.978 72.7117 114.703 72.89 114.026 73.7863L76.0459 124.127C77.2592 120.926 99.6853 61.7761 100.577 59.4246L132.433 49.3906L119.744 66.2091C119.067 67.106 119.245 68.3813 120.142 69.0578C121.039 69.7342 122.314 69.556 122.991 68.6591C140.027 46.0585 139.109 47.4284 139.781 46.0998C140.136 45.3968 140.054 44.5521 139.57 43.9311ZM69.9997 27.7538L94.5376 55.7469H45.4621L69.9997 27.7538ZM5.23084 44.39L24.5259 19.6464L37.6073 54.5886L5.23084 44.39ZM28.3493 18.2563C32.3765 19.0769 61.253 24.9618 66.1615 25.962L41.6867 53.8829L28.3493 18.2563ZM70.2245 128.008H69.7755L43.9207 59.8142H96.0793L70.2245 128.008ZM98.3127 53.8826L73.8379 25.962C77.0938 25.2984 106.644 19.2767 111.65 18.2563L98.3127 53.8826ZM102.392 54.5881L115.474 19.6459L134.769 44.3897L102.392 54.5881Z" fill="white"/>
</g>
<defs>
<clipPath id="clip0">
<rect width="140" height="140" fill="white"/>
</clipPath>
</defs>
</svg>
