<svg width="197" height="50" viewBox="0 0 197 50" fill="none" xmlns="http://www.w3.org/2000/svg">
<g clip-path="url(#clip0)">
<path d="M57.7759 49.8605L60.7052 41.0323H62.4694L65.3931 49.8605H63.7288L63.002 47.7399H60.1781L59.4624 49.8605H57.7759ZM60.4111 46.3169H62.7579L61.5817 42.7623L60.4111 46.3169Z" fill="white"/>
<path d="M69.1377 49.8605V41.0324H72.8215C73.1854 41.0014 73.5513 41.0582 73.889 41.1979C74.2267 41.3377 74.5264 41.5564 74.7633 41.8359C75.2068 42.4646 75.4258 43.2258 75.3846 43.9955C75.3988 44.5348 75.2602 45.067 74.9852 45.5301C74.7265 45.9544 74.3368 46.2817 73.8756 46.4621C73.9973 46.573 74.1004 46.703 74.1807 46.8471C74.2716 47.0265 74.3477 47.2132 74.4082 47.4051L75.3402 49.8717H73.6759L72.7716 47.5C72.7176 47.3407 72.6284 47.1957 72.5108 47.0759C72.3706 46.9808 72.2021 46.9374 72.0337 46.9531H70.7688V49.8717L69.1377 49.8605ZM70.7466 45.3962H72.411C72.769 45.4176 73.1217 45.302 73.3985 45.0725C73.5346 44.9235 73.6368 44.7465 73.6982 44.5538C73.7595 44.3611 73.7784 44.1573 73.7535 43.9565C73.7885 43.5692 73.6777 43.1828 73.4429 42.8739C73.3205 42.7518 73.1734 42.6577 73.0116 42.598C72.8498 42.5383 72.6771 42.5144 72.5053 42.5279H70.7521L70.7466 45.3962Z" fill="white"/>
<path d="M76.5054 49.8605V41.0323H82.0144V42.4721H78.1309V44.7377H81.554V46.1607H78.1143V48.4375H81.9978V49.8605H76.5054Z" fill="white"/>
<path d="M82.8965 49.8605V48.9007L86.78 42.5669H83.1073V41.0323H88.8771V42.1484L85.0491 48.4263H88.9326V49.8493L82.8965 49.8605Z" fill="white"/>
<path d="M92.2999 50C91.8386 50.0006 91.3781 49.9596 90.9241 49.8772C90.54 49.8084 90.1669 49.6883 89.8145 49.5201V47.8906C90.1714 48.0568 90.5429 48.1894 90.9241 48.2868C91.3141 48.3856 91.7146 48.4362 92.1169 48.4375C92.5332 48.4591 92.9498 48.3985 93.3429 48.2589C93.4896 48.1825 93.6087 48.0617 93.6834 47.9135C93.7581 47.7653 93.7845 47.5972 93.759 47.433C93.7712 47.2104 93.7129 46.9897 93.5926 46.8024C93.4384 46.6139 93.2374 46.4695 93.0101 46.3839C92.6317 46.2226 92.2446 46.0828 91.8506 45.9654C91.21 45.8069 90.6248 45.475 90.1585 45.0056C89.8096 44.5524 89.6361 43.9873 89.6702 43.4152C89.6496 43.0679 89.7073 42.7203 89.8389 42.3986C89.9705 42.0768 90.1727 41.7891 90.4303 41.5569C91.0797 41.0757 91.878 40.8423 92.6827 40.8984C93.1159 40.8949 93.5485 40.9304 93.9754 41.0045C94.3049 41.0601 94.6282 41.1479 94.9407 41.2667V42.8962C94.2958 42.617 93.6012 42.4727 92.8991 42.4721C92.4971 42.4558 92.0957 42.5183 91.7174 42.6562C91.5744 42.7242 91.4561 42.8356 91.3795 42.9748C91.3028 43.114 91.2716 43.2739 91.2902 43.4319C91.2762 43.6304 91.3311 43.8276 91.4456 43.9899C91.5949 44.1611 91.7862 44.29 92.0004 44.3638C92.3446 44.5064 92.6965 44.6294 93.0544 44.7321C93.576 44.8714 94.0683 45.1039 94.508 45.4185C94.8231 45.6458 95.069 45.9569 95.2181 46.317C95.3508 46.6737 95.4166 47.0521 95.4123 47.433C95.4259 47.7787 95.365 48.1232 95.2338 48.443C95.1026 48.7628 94.9042 49.0503 94.6522 49.2857C93.983 49.8084 93.1449 50.0629 92.2999 50Z" fill="white"/>
<path d="M96.5332 49.8605V41.0323H98.1476V49.8605H96.5332Z" fill="white"/>
<path d="M99.5015 49.8605V41.0323H101.116V44.7768L104.073 41.0323H105.92L103.146 44.6094L106.07 49.8605H104.35L102.131 45.7924L101.11 47.0647V49.8549L99.5015 49.8605Z" fill="white"/>
<path d="M109.904 50C107.415 50 106.17 48.497 106.17 45.4911C106.17 43.8728 106.481 42.7009 107.113 41.981C107.876 41.2846 108.87 40.8988 109.901 40.8988C110.932 40.8988 111.925 41.2846 112.689 41.981C113.321 42.7009 113.632 43.8728 113.632 45.4911C113.632 48.4933 112.389 49.9963 109.904 50ZM109.904 48.4208C110.211 48.4491 110.52 48.3978 110.801 48.2718C111.083 48.1458 111.328 47.9492 111.513 47.7009C111.904 47.0263 112.082 46.2477 112.023 45.4687C112.094 44.6552 111.916 43.8393 111.513 43.1306C111.306 42.9171 111.059 42.7475 110.786 42.6316C110.513 42.5158 110.219 42.4561 109.923 42.4561C109.627 42.4561 109.333 42.5158 109.061 42.6316C108.788 42.7475 108.54 42.9171 108.334 43.1306C107.93 43.8393 107.752 44.6552 107.823 45.4687C107.764 46.2477 107.942 47.0263 108.334 47.7009C108.515 47.9426 108.754 48.1349 109.028 48.2606C109.302 48.3863 109.603 48.4413 109.904 48.4208ZM108.101 40.0893V38.7444H109.366V40.0893H108.101ZM110.436 40.0893V38.7444H111.701V40.0893H110.436Z" fill="white"/>
<path d="M114.752 49.8605V41.0323H116.361V48.4375H120.145V49.8605H114.752Z" fill="white"/>
<path d="M121.498 49.8605V42.4609H119.141V41.0323H125.437V42.4609H123.085V49.8605H121.498Z" fill="white"/>
<path d="M128.467 50C128.005 50.0012 127.545 49.9601 127.091 49.8772C126.706 49.8093 126.333 49.6892 125.981 49.5201V47.8906C126.338 48.0571 126.709 48.1898 127.091 48.2868C127.481 48.3852 127.881 48.4358 128.283 48.4375C128.7 48.4591 129.116 48.3985 129.51 48.2589C129.657 48.1834 129.778 48.0629 129.853 47.9146C129.929 47.7663 129.956 47.5978 129.931 47.433C129.943 47.2104 129.885 46.9897 129.765 46.8025C129.618 46.6183 129.427 46.4744 129.21 46.3839C128.829 46.2236 128.44 46.0839 128.045 45.9654C127.415 45.8009 126.84 45.4695 126.381 45.0056C126.032 44.5524 125.858 43.9873 125.892 43.4152C125.87 43.0636 125.928 42.7116 126.063 42.3865C126.198 42.0613 126.405 41.7717 126.669 41.5402C127.318 41.0581 128.117 40.8246 128.922 40.8817C129.353 40.8782 129.784 40.9137 130.209 40.9877C130.538 41.0419 130.862 41.1298 131.174 41.25V42.8795C130.529 42.5997 129.834 42.4554 129.132 42.4554C128.732 42.4385 128.332 42.5011 127.956 42.6395C127.812 42.7059 127.692 42.8168 127.614 42.9562C127.536 43.0957 127.504 43.2564 127.523 43.4152C127.513 43.6133 127.567 43.8096 127.679 43.9732C127.829 44.143 128.02 44.2717 128.234 44.3471C128.578 44.4897 128.93 44.6126 129.288 44.7154C129.81 44.8534 130.302 45.086 130.741 45.4018C131.034 45.6416 131.255 45.9584 131.379 46.317C131.514 46.6734 131.581 47.0518 131.579 47.433C131.593 47.7793 131.532 48.1244 131.399 48.4444C131.267 48.7643 131.067 49.0515 130.813 49.2857C130.146 49.8076 129.31 50.0621 128.467 50Z" fill="white"/>
<path d="M132.7 49.8605V41.0324H138.209V42.4721H134.325V44.7377H137.782V46.1607H134.325V48.4375H138.209V49.8605H132.7ZM134.664 40.4297L135.618 37.8683H137.033L135.984 40.4297H134.664Z" fill="white"/>
<path d="M142.902 50C142.359 50.0371 141.813 49.9517 141.307 49.7499C140.8 49.5482 140.344 49.2351 139.973 48.8337C139.255 47.9151 138.898 46.7633 138.969 45.5971C138.898 44.3638 139.257 43.1443 139.984 42.1484C140.357 41.7202 140.824 41.3845 141.347 41.1677C141.871 40.9508 142.437 40.8587 143.002 40.8984C143.42 40.8944 143.837 40.9242 144.25 40.9877C144.613 41.041 144.968 41.1346 145.31 41.2667V42.8571C144.971 42.7176 144.618 42.6183 144.256 42.5614C143.889 42.5044 143.518 42.4746 143.146 42.4721C142.785 42.4345 142.419 42.4854 142.081 42.6204C141.743 42.7555 141.442 42.9707 141.205 43.2478C140.778 43.9523 140.583 44.7747 140.65 45.5971C140.65 47.4888 141.421 48.4375 142.974 48.4375C143.241 48.4367 143.506 48.4105 143.768 48.3594C144.001 48.3147 144.229 48.2493 144.45 48.1641V46.1049H142.664V44.9275H145.809V49.2467C145.468 49.4749 145.094 49.6498 144.7 49.7656C144.117 49.9403 143.51 50.0194 142.902 50Z" fill="white"/>
<path d="M146.886 49.8605V41.0323H152.395V42.4721H148.511V44.7377H151.973V46.1607H148.511V48.4375H152.395V49.8605H146.886Z" fill="white"/>
<path d="M153.516 49.8605V41.0323H155.125V44.7768L158.082 41.0323H159.929L157.155 44.6094L160.073 49.8605H158.359L156.14 45.7924L155.113 47.0647V49.8549L153.516 49.8605Z" fill="white"/>
<path d="M163.818 49.8605V41.0323H169.327V42.4721H165.443V44.7377H168.9V46.1607H165.443V48.4375H169.327V49.8605H163.818Z" fill="white"/>
<path d="M170.448 49.8605V41.0323H172.057V48.4375H175.835V49.8605H170.448Z" fill="white"/>
<path d="M176.717 49.8605V41.0323H178.326V48.4375H182.109V49.8605H176.717Z" fill="white"/>
<path d="M182.991 49.8605V41.0323H188.5V42.4721H184.617V44.7377H188.073V46.1607H184.617V48.4375H188.5V49.8605H182.991Z" fill="white"/>
<path d="M189.621 49.8605V41.0323H191.014L194.653 46.914V41.0323H196.262V49.8605H194.864L191.23 43.9788V49.8605H189.621Z" fill="white"/>
<path d="M60.1001 32.0536H196.939" stroke="white" stroke-width="2.97" stroke-miterlimit="10"/>
<path d="M60.7214 24.4308V10.1284H55.6118V5.5134H72.2555V10.1284H67.1292V24.4308H60.7214Z" fill="white"/>
<path d="M70.3193 24.4308L77.6703 5.51339H84.3277L91.6953 24.4308H85.0379L83.5732 20.6473H78.4303L76.9768 24.4085L70.3193 24.4308ZM78.5524 4.22433L81.2875 0H86.2196L83.2182 4.22433H78.5524ZM165.532 4.22433L168.262 0H173.194L170.198 4.22433H165.532ZM79.207 16.2667H82.8021L80.999 11.6853L79.207 16.2667Z" fill="white"/>
<path d="M93.4985 24.4308V5.5134H99.6012L103.94 14.2411L108.239 5.5134H114.342V24.4308H107.967V16.3839L105.593 21.2054H102.264L99.862 16.3839V24.4308H93.4985Z" fill="white"/>
<path d="M116.139 24.4308L123.479 5.5134H130.164L137.537 24.4308H130.88L129.393 20.6473H124.272L122.819 24.4085L116.139 24.4308ZM125.016 16.2667H128.611L126.797 11.6853L125.016 16.2667Z" fill="white"/>
<path d="M139.318 24.4308V5.51339H148.128C149.888 5.47039 151.637 5.79533 153.266 6.46763C154.675 7.08753 155.837 8.1641 156.567 9.52566C157.414 11.2579 157.813 13.1774 157.726 15.106C157.726 18.3761 156.885 20.7515 155.202 22.2321C153.519 23.7128 151.161 24.4568 148.128 24.4643L139.318 24.4308ZM145.71 19.6149H147.374C148.083 19.6335 148.79 19.5141 149.454 19.2634C150.048 19.0087 150.522 18.5356 150.78 17.9408C151.134 17.0265 151.289 16.0466 151.235 15.067C151.281 14.1002 151.14 13.1336 150.819 12.221C150.704 11.9237 150.531 11.6523 150.312 11.4224C150.092 11.1925 149.829 11.0088 149.538 10.8817C148.846 10.6145 148.109 10.4893 147.368 10.5134H145.704L145.71 19.6149Z" fill="white"/>
<path d="M157.293 24.4308L164.633 5.5134H171.324L178.692 24.4308H172.034L170.547 20.6473H165.41L163.951 24.4085L157.293 24.4308ZM166.17 16.2667H169.765L167.951 11.6853L166.17 16.2667Z" fill="white"/>
<path d="M186.182 24.7266C184.912 24.7299 183.644 24.6216 182.392 24.4029C181.342 24.2323 180.318 23.9246 179.347 23.4877V18.5547C180.335 19.0064 181.364 19.3615 182.42 19.615C183.425 19.8724 184.457 20.0092 185.494 20.0223C186.113 20.0466 186.731 19.9674 187.324 19.788C187.515 19.7361 187.682 19.6204 187.798 19.4601C187.914 19.2997 187.972 19.1044 187.962 18.9063C187.962 18.4189 187.635 18.0618 186.981 17.8348L184.157 16.8806C183.104 16.5533 182.1 16.084 181.172 15.4855C180.493 15.0384 179.952 14.4079 179.613 13.6663C179.273 12.8333 179.111 11.938 179.136 11.038C179.136 7.16148 181.86 5.22324 187.308 5.22324C188.027 5.22688 188.746 5.26972 189.46 5.35158C190.226 5.44087 190.958 5.55248 191.68 5.67525C192.287 5.78104 192.887 5.92454 193.477 6.10493V11.0659C192.578 10.708 191.65 10.4279 190.703 10.2288C189.946 10.0704 189.174 9.98634 188.401 9.9777C187.768 9.97333 187.137 10.0275 186.514 10.1395C185.949 10.2511 185.666 10.5302 185.666 10.9766C185.666 11.3505 185.915 11.6295 186.409 11.8136C186.903 11.9978 187.735 12.2545 188.906 12.567C190.168 12.8638 191.37 13.3793 192.456 14.0904C193.192 14.6076 193.755 15.3373 194.071 16.1831C194.367 17.0575 194.512 17.9768 194.498 18.9007C194.519 19.7251 194.341 20.5424 193.978 21.2822C193.616 22.0219 193.08 22.662 192.417 23.1473C191.03 24.2002 188.952 24.7266 186.182 24.7266Z" fill="white"/>
<path d="M37.1708 40.4576C37.1708 40.8373 37.0589 41.2084 36.8492 41.5241C36.6395 41.8398 36.3414 42.0858 35.9927 42.2311C35.644 42.3764 35.2602 42.4144 34.89 42.3404C34.5198 42.2663 34.1798 42.0835 33.9128 41.815C33.6459 41.5465 33.4642 41.2045 33.3905 40.8321C33.3169 40.4597 33.3547 40.0738 33.4991 39.723C33.6436 39.3722 33.8882 39.0724 34.2021 38.8615C34.5159 38.6505 34.8849 38.538 35.2623 38.538C35.7685 38.538 36.2539 38.7402 36.6118 39.1002C36.9697 39.4602 37.1708 39.9485 37.1708 40.4576ZM44.2111 29.7043H48.8879V25.865H44.2111V29.7043ZM44.2111 19.1462V22.9855H48.8879V19.1462H44.2111ZM44.2111 36.4453H48.8879V32.5837H44.2111V36.4453ZM41.3484 34.2634C42.9705 35.9156 43.8931 38.1357 43.9226 40.4576C43.865 42.7613 42.9148 44.9511 41.2746 46.56C39.6344 48.1688 37.4341 49.0693 35.1431 49.0693C32.8521 49.0693 30.6518 48.1688 29.0116 46.56C27.3714 44.9511 26.4211 42.7613 26.3635 40.4576C26.389 38.1311 27.3097 35.9049 28.9322 34.2467V22.5279C28.9322 20.8733 29.5857 19.2864 30.7489 18.1164C31.9121 16.9464 33.4897 16.2891 35.1347 16.2891C36.7798 16.2891 38.3574 16.9464 39.5206 18.1164C40.6838 19.2864 41.3373 20.8733 41.3373 22.5279L41.3484 34.2634ZM40.1056 40.4576C40.0948 39.7079 39.9208 38.9696 39.5958 38.2947C39.2709 37.6199 38.803 37.0248 38.2249 36.5514L37.5314 35.9933V22.5056C37.5314 21.8692 37.2801 21.2589 36.8327 20.8089C36.3853 20.3588 35.7785 20.106 35.1458 20.106C34.5131 20.106 33.9064 20.3588 33.459 20.8089C33.0116 21.2589 32.7603 21.8692 32.7603 22.5056V35.9877L32.0723 36.5458C31.4951 37.02 31.0278 37.6152 30.7029 38.2899C30.3781 38.9646 30.2036 39.7025 30.1916 40.452C30.2346 41.747 30.7763 42.9745 31.7023 43.8752C32.6283 44.776 33.866 45.2795 35.1542 45.2795C36.4423 45.2795 37.6801 44.776 38.606 43.8752C39.532 42.9745 40.0737 41.747 40.1167 40.452L40.1056 40.4576ZM10.541 45.4464C10.289 45.4487 10.039 45.4006 9.80552 45.3052C9.57205 45.2097 9.3597 45.0686 9.18071 44.8901C9.00173 44.7117 8.85966 44.4993 8.76271 44.2653C8.66576 44.0313 8.61585 43.7803 8.61586 43.5268V19.8661L24.4551 5.35716L32.1777 12.4275H37.8532L24.4551 0.133942L0 22.5726L2.57422 25.4074L4.79337 23.3705V43.5268C4.7941 44.2847 4.94342 45.0351 5.23279 45.7349C5.52217 46.4348 5.94591 47.0703 6.47977 47.6052C7.01364 48.1402 7.64713 48.5639 8.344 48.8523C9.04088 49.1406 9.78744 49.2879 10.541 49.2857H26.1194C25.045 48.1717 24.1803 46.8709 23.5674 45.4464H10.541Z" fill="white"/>
</g>
<defs>
<clipPath id="clip0">
<rect width="196.939" height="50" fill="white"/>
</clipPath>
</defs>
</svg>
