<svg width="140" height="140" viewBox="0 0 140 140" fill="none" xmlns="http://www.w3.org/2000/svg">
<g clip-path="url(#clip0)">
<path d="M139.236 96.6312C137.448 92.7635 133.068 90.913 129.049 92.3266L122.854 94.5054L116.224 88.6568C107.698 81.1347 96.0383 78.5524 85.3488 81.3561V75.5882L97.5418 62.9787C98.2264 62.271 98.8948 61.508 99.5285 60.7114C100.233 59.8251 100.086 58.5353 99.2001 57.8303C98.3139 57.1255 97.0243 57.2726 96.319 58.1586C95.7671 58.8524 95.1867 59.5151 94.5938 60.1282L84.2192 70.8571L79.6571 56.3669C78.261 51.9325 79.369 47.0708 82.5486 43.679L89.9166 35.8197C90.597 35.0939 91.184 34.2828 91.6607 33.4088L96.2493 24.9963C96.2627 24.9717 96.2942 24.914 96.3874 24.9066C96.4814 24.9011 96.5208 24.9512 96.5377 24.9733C102.285 32.4069 103.742 42.0994 100.436 50.9007C100.037 51.9609 100.574 53.143 101.634 53.5413C102.694 53.9396 103.876 53.4032 104.274 52.3431C108.084 42.2011 106.405 31.0318 99.7819 22.4654C98.8961 21.3197 97.5058 20.7048 96.0621 20.8194C94.6186 20.9342 93.3428 21.7617 92.6492 23.0332L88.0606 31.4457C87.7501 32.0149 87.3679 32.5431 86.9248 33.016L86.1946 33.7948C86.1642 32.4329 85.9926 31.0988 85.6763 29.7989C85.4395 28.8254 84.7359 28.0387 83.7938 27.6939C82.8507 27.3489 81.8036 27.4963 80.9934 28.0879L74.0499 33.1568C68.0512 37.5363 64.5966 44.3078 64.5723 51.7351C64.5479 59.1624 67.9577 65.9563 73.9277 70.3752L81.2473 75.7929V82.7164C80.0565 83.1997 78.8854 83.7539 77.7405 84.3818L59.7374 94.2539H58.4864C55.6654 91.7304 52.0621 90.3504 48.2469 90.3504H22.6234C21.6354 88.6235 19.7784 87.4545 17.6505 87.4545H2.05031C0.917993 87.4545 0 88.3725 0 89.5049C0 90.6372 0.917993 91.5552 2.05031 91.5552H17.6513C18.5493 91.5552 19.28 92.2859 19.28 93.1839V99.2157C19.28 100.348 20.198 101.266 21.3304 101.266C22.4627 101.266 23.3807 100.348 23.3807 99.2157V94.451H48.2477C51.2603 94.451 54.0922 95.6241 56.2223 97.7542C56.6067 98.1389 57.1283 98.3548 57.672 98.3548H82.9811C85.9045 98.3548 88.2829 100.733 88.2829 103.657C88.2829 106.58 85.9045 108.958 82.9811 108.958H62.4577C61.5088 108.958 60.6168 109.328 59.9465 109.999L56.4172 113.528C55.6165 114.329 55.6165 115.627 56.4172 116.427C56.8174 116.828 57.3423 117.028 57.8669 117.028C58.3915 117.028 58.9164 116.828 59.3166 116.427L62.6849 113.059H82.9808C85.3734 113.059 87.5587 112.159 89.22 110.682L130.409 96.1965C132.424 95.4879 134.618 96.4155 135.514 98.3535C136.44 100.358 135.63 102.724 133.669 103.739L89.2383 126.748C86.6372 128.095 83.714 128.807 80.785 128.807H77.2022C76.0699 128.807 75.1519 129.725 75.1519 130.857C75.1519 131.99 76.0699 132.908 77.2022 132.908H80.785C84.3674 132.908 87.9426 132.037 91.1238 130.39L135.555 107.381C139.469 105.352 141.086 100.631 139.236 96.6312ZM68.6734 51.7479C68.6934 45.6394 71.5346 40.0702 76.4685 36.4682L81.9936 32.4345C82.2383 34.4709 82.0538 36.6221 81.4529 38.8523L79.5573 40.8744C75.3662 45.3449 73.9058 51.7531 75.7462 57.5982L79.4488 69.3585L76.3681 67.0783C71.458 63.4443 68.6535 57.8565 68.6734 51.7479ZM82.9811 94.2531H68.2667L79.7129 87.9767C90.6096 82.0013 104.193 83.5106 113.512 91.732L118.422 96.0642L92.2416 105.272C92.3332 104.746 92.3835 104.207 92.3835 103.656C92.3835 98.471 88.1656 94.2531 82.9811 94.2531Z" fill="white"/>
<path d="M68.4649 128.806H42.5434C38.1429 128.806 33.8832 127.224 30.5486 124.353L29.3422 123.314C28.9701 122.994 28.4952 122.817 28.0043 122.817H23.3807V107.958C23.3807 106.826 22.4627 105.908 21.3304 105.908C20.198 105.908 19.28 106.826 19.28 107.958V124.35C19.28 125.248 18.5493 125.979 17.6513 125.979H2.05031C0.917993 125.979 0 126.897 0 128.029C0 129.161 0.917993 130.079 2.05031 130.079H17.6513C19.8867 130.079 21.8219 128.789 22.7656 126.918H27.2429L27.8725 127.46C31.951 130.972 37.1612 132.906 42.5432 132.906H68.4646C69.5969 132.906 70.5149 131.988 70.5149 130.856C70.5149 129.724 69.5972 128.806 68.4649 128.806Z" fill="white"/>
<path d="M54.8823 82.4134C55.2719 82.7562 55.7552 82.9249 56.2363 82.9249C56.805 82.9249 57.3708 82.6898 57.776 82.2294C58.5242 81.3795 58.4419 80.084 57.592 79.3357C49.1934 71.9415 44.3765 61.2905 44.3765 50.1139C44.3765 38.9372 49.1934 28.2862 57.592 20.892C58.4419 20.1438 58.5242 18.848 57.776 17.9983C57.0275 17.1484 55.7322 17.0661 54.8823 17.8143C45.5999 25.9869 40.2759 37.7598 40.2759 50.1141C40.2759 62.4685 45.5999 74.2408 54.8823 82.4134Z" fill="white"/>
<path d="M109.205 79.1571C108.36 79.9111 108.287 81.2075 109.041 82.0522C109.446 82.506 110.007 82.737 110.571 82.737C111.057 82.737 111.545 82.5653 111.936 82.2162C121.077 74.056 126.32 62.355 126.32 50.1132C126.32 37.8718 121.077 26.1705 111.936 18.0103C111.091 17.2563 109.795 17.3296 109.041 18.1746C108.287 19.0193 108.36 20.3156 109.205 21.0696C117.476 28.4526 122.22 39.0388 122.22 50.1135C122.22 61.1882 117.476 71.7744 109.205 79.1571Z" fill="white"/>
<path d="M77.29 11.6534C81.7887 10.9566 86.4642 11.0539 90.9317 11.9419C91.0668 11.9686 91.201 11.9818 91.3336 11.9818C92.2918 11.9818 93.1485 11.3065 93.3423 10.3309C93.5632 9.22013 92.8418 8.14085 91.7311 7.92024C86.7953 6.93909 81.6323 6.83138 76.6621 7.60121C75.5432 7.77453 74.7766 8.8221 74.9497 9.9413C75.1227 11.0605 76.1697 11.8265 77.29 11.6534Z" fill="white"/>
</g>
<defs>
<clipPath id="clip0">
<rect width="140" height="140" fill="white"/>
</clipPath>
</defs>
</svg>
