<svg width="175" height="60" viewBox="0 0 175 60" fill="none" xmlns="http://www.w3.org/2000/svg">
<g clip-path="url(#clip0)">
<path d="M12.5802 26.0438C12.724 21.7636 13.6585 19.6949 16.7497 16.6274C19.8408 13.56 24.6573 13.0992 27.1819 13.0992C29.7066 13.0992 35.7279 14.4874 39.8973 14.202C44.0668 13.9167 46.2234 11.9977 46.2234 11.9977L46.3571 11.7481C41.2539 7.38287 34.7374 4.98726 28 4.99968C12.5357 4.99968 0 17.328 0 32.5353H14.2955C13.3005 30.9988 12.4796 29.0484 12.5802 26.0438Z" fill="#70CB0A"/>
<path d="M47.2054 12.5002L47.086 12.7756C46.6116 18.0216 40.6162 20.4799 40.6162 20.4799C42.054 21.9066 42.4853 24.9027 42.4853 26.6148C42.4853 28.0101 42.1977 30.1644 40.8463 32.5357H56C56.0012 28.7755 55.2208 25.0554 53.7076 21.6081C52.1944 18.1608 49.9809 15.0602 47.2054 12.5002Z" fill="#70CB0A"/>
<path d="M25.5198 26.3294C28.3953 22.6199 30.9833 22.3346 30.9833 22.3346C29.258 23.7613 27.6765 26.6147 27.1014 27.7561C26.5263 28.8975 26.0949 30.8949 26.2387 32.1789C26.252 32.2997 26.276 32.4191 26.3106 32.5356H32.1421C34.3102 31.0375 35.2936 28.4694 36.0125 25.7587C36.7313 23.0479 36.1563 18.3397 36.1563 18.3397C27.386 17.4837 24.3668 19.9091 22.929 20.7652C21.4913 21.6212 18.6158 25.0453 18.7596 30.1815C18.782 30.978 18.9037 31.7688 19.1219 32.5356H23.231C23.2683 30.7978 23.8075 28.5408 25.5198 26.3294Z" fill="#70CB0A"/>
<path d="M28.2515 33.8197C28.9704 33.8197 29.9768 33.9623 32.1449 32.4643C32.178 32.4415 32.2082 32.4158 32.2398 32.3929H26.2919C26.5622 33.4544 27.5887 33.8197 28.2515 33.8197Z" fill="#006828"/>
<path d="M40.8864 32.3929C40.5505 32.9898 40.1719 33.562 39.7534 34.105C37.453 37.1011 32.5647 38.6705 28.9704 38.5278C25.376 38.3852 24.2258 36.3878 23.6507 35.1037C23.4135 34.5744 23.2007 33.6071 23.2352 32.3929H19.1031C19.7252 34.5776 21.0748 36.4887 22.9319 37.8145C22.9319 37.8145 19.6251 37.8145 19.9126 40.6679C20.2001 43.5213 23.7945 43.8067 23.7945 43.8067C23.7945 43.8067 32.8523 44.092 35.2964 44.2347C37.7406 44.3774 40.1847 45.3761 41.6225 46.0894C43.0602 46.8028 44.7855 48.5149 45.2168 49.2282C45.6482 49.9416 46.2707 52.9662 46.2707 52.9662L46.3282 53.2815C49.3612 50.7119 51.7966 47.5201 53.4663 43.9262C55.136 40.3323 56.0004 36.4218 55.9999 32.4643C55.9999 32.44 55.9999 32.4172 55.9999 32.3929H40.8864Z" fill="#006828"/>
<path d="M32.8524 50.9403C31.4146 50.6549 22.8773 50.5422 22.8773 50.5422C22.8773 50.5422 17.4685 50.0843 14.8806 47.2308C12.2927 44.3774 12.5802 41.8335 12.5802 39.3839C12.5802 37.8145 15.5995 34.2477 15.5995 34.2477C15.1552 33.677 14.6836 33.0749 14.2494 32.3929H0C0 32.4172 0 32.44 0 32.4643C0 47.6717 12.5357 59.9999 28 59.9999C29.7764 59.9981 31.5488 59.831 33.2938 59.5006C34.576 58.902 35.667 57.964 36.4467 56.7898C36.4467 56.7898 37.4531 54.6497 36.7343 53.223C36.0154 51.7963 34.2901 51.2256 32.8524 50.9403Z" fill="#006828"/>
</g>
<path d="M77.0566 55H75.9824L72.623 47.8809L71.5195 49.3359V55H70.5625V40.7227H71.5195V48.2812C71.8516 47.6562 73.2578 45.1367 75.7383 40.7227H76.7832L73.1992 47.002L77.0566 55ZM85.8047 55H80.6289V40.7227H85.8047V41.6406H81.5859V47.0605H85.5703V47.9785H81.5859V54.082H85.8047V55ZM91.2812 48.7598V55H90.3242V40.7227H92.2773C93.6706 40.7227 94.6895 41.0514 95.334 41.709C95.9785 42.3665 96.3008 43.3496 96.3008 44.6582C96.3008 45.6478 96.125 46.4616 95.7734 47.0996C95.4219 47.7376 94.8327 48.2161 94.0059 48.5352L96.8379 55H95.7637L93.0977 48.7598H91.2812ZM91.2812 47.8809H92.6191C93.485 47.8809 94.1523 47.6139 94.6211 47.0801C95.0898 46.5462 95.3242 45.752 95.3242 44.6973C95.3242 43.623 95.0833 42.8483 94.6016 42.373C94.1263 41.8978 93.3743 41.6602 92.3457 41.6602H91.2812V47.8809ZM103.193 55H102.236V41.6406H99.3945V40.7227H106.035V41.6406H103.193V55ZM114.949 55H109.773V40.7227H114.949V41.6406H110.73V47.0605H114.715V47.9785H110.73V54.082H114.949V55ZM111.375 39.5801V39.375C112.202 38.2943 112.824 37.2949 113.24 36.377H114.461V36.543C114.207 36.9987 113.82 37.5228 113.299 38.1152C112.785 38.7077 112.296 39.196 111.834 39.5801H111.375ZM124.947 51.2598C124.947 52.4316 124.622 53.3822 123.971 54.1113C123.32 54.834 122.493 55.1953 121.49 55.1953C120.351 55.1953 119.436 55.0293 118.746 54.6973V53.6621C119.085 53.8509 119.505 54.0007 120.006 54.1113C120.507 54.222 121.002 54.2773 121.49 54.2773C122.219 54.2773 122.818 54.0007 123.287 53.4473C123.756 52.8939 123.99 52.1908 123.99 51.3379C123.99 50.5501 123.824 49.9251 123.492 49.4629C123.16 49.0007 122.525 48.5384 121.588 48.0762C120.852 47.7051 120.302 47.347 119.938 47.002C119.573 46.6504 119.303 46.2435 119.127 45.7812C118.951 45.319 118.863 44.7656 118.863 44.1211C118.863 43.418 119.007 42.793 119.293 42.2461C119.579 41.6992 119.98 41.276 120.494 40.9766C121.008 40.6706 121.572 40.5176 122.184 40.5176C122.737 40.5176 123.238 40.5794 123.688 40.7031C124.143 40.8268 124.501 40.9603 124.762 41.1035L124.391 42.0215C123.668 41.6504 122.932 41.4648 122.184 41.4648C121.48 41.4648 120.908 41.7057 120.465 42.1875C120.029 42.6628 119.811 43.2943 119.811 44.082C119.811 44.8828 119.97 45.5046 120.289 45.9473C120.608 46.39 121.233 46.849 122.164 47.3242C123.128 47.793 123.831 48.3431 124.273 48.9746C124.723 49.5996 124.947 50.3613 124.947 51.2598ZM133.695 55H128.373V54.1406L132.514 41.6602H128.432V40.7227H133.578V41.6016L129.379 54.082H133.695V55ZM149.932 55H148.857L145.498 47.8809L144.395 49.3359V55H143.438V40.7227H144.395V48.2812C144.727 47.6562 146.133 45.1367 148.613 40.7227H149.658L146.074 47.002L149.932 55ZM154.461 55H153.504V40.7227H158.699V41.6406H154.461V47.6953H158.465V48.623H154.461V55ZM165.006 55H164.049V41.6406H161.207V40.7227H167.848V41.6406H165.006V55ZM171.322 54.1211C171.322 53.4245 171.576 53.0762 172.084 53.0762C172.292 53.0762 172.471 53.1543 172.621 53.3105C172.771 53.4668 172.846 53.737 172.846 54.1211C172.846 54.4922 172.771 54.7591 172.621 54.9219C172.471 55.0781 172.292 55.1562 172.084 55.1562C171.576 55.1562 171.322 54.8112 171.322 54.1211Z" fill="#006828"/>
<path d="M78.0156 21.4844H83.0156V32.2969C81.276 32.974 79.4688 33.3125 77.5938 33.3125C75.1042 33.3125 73.1719 32.2708 71.7969 30.1875C70.4219 28.1042 69.7344 25.2135 69.7344 21.5156C69.7344 17.8073 70.4427 14.9323 71.8594 12.8906C73.2865 10.849 75.2865 9.82812 77.8594 9.82812C79.5885 9.82812 81.2188 10.3177 82.75 11.2969L82.0156 12.6406C80.5781 11.724 79.1927 11.2656 77.8594 11.2656C75.724 11.2656 74.1042 12.1458 73 13.9062C71.9062 15.6562 71.3594 18.2031 71.3594 21.5469C71.3594 24.8177 71.9115 27.3542 73.0156 29.1562C74.1302 30.9479 75.7031 31.8438 77.7344 31.8438C79.1927 31.8438 80.4375 31.651 81.4688 31.2656V22.9531H78.0156V21.4844ZM96.8438 23.0156V33H95.3125V10.1562H98.4375C100.667 10.1562 102.297 10.6823 103.328 11.7344C104.359 12.7865 104.875 14.3594 104.875 16.4531C104.875 18.0365 104.594 19.3385 104.031 20.3594C103.469 21.3802 102.526 22.1458 101.203 22.6562L105.734 33H104.016L99.75 23.0156H96.8438ZM96.8438 21.6094H98.9844C100.37 21.6094 101.438 21.1823 102.188 20.3281C102.938 19.474 103.312 18.2031 103.312 16.5156C103.312 14.7969 102.927 13.5573 102.156 12.7969C101.396 12.0365 100.193 11.6562 98.5469 11.6562H96.8438V21.6094ZM125.188 33H116.906V10.1562H125.188V11.625H118.438V20.2969H124.812V21.7656H118.438V31.5312H125.188V33ZM145.5 33H137.219V10.1562H145.5V11.625H138.75V20.2969H145.125V21.7656H138.75V31.5312H145.5V33ZM169.562 33H167.609L158.969 12.5156H158.844C158.969 13.9323 159.031 15.2969 159.031 16.6094V33H157.531V10.1562H159.516L168.094 30.4062H168.188C168.104 28.6979 168.062 27.2708 168.062 26.125V10.1562H169.562V33Z" fill="#006828"/>
<defs>
<clipPath id="clip0">
<rect width="56" height="55" fill="white" transform="translate(0 5)"/>
</clipPath>
</defs>
</svg>
