<svg width="252" height="64" viewBox="0 0 252 64" fill="none" xmlns="http://www.w3.org/2000/svg">
<path d="M73.9287 63.8213L77.677 52.5213H79.9345L83.6756 63.8213H81.5459L80.616 61.107H77.0026L76.0868 63.8213H73.9287ZM77.3007 59.2856H80.3036L78.7986 54.7356L77.3007 59.2856Z" fill="#333333"/>
<path d="M88.4678 63.8213V52.5213H93.1815C93.6471 52.4816 94.1154 52.5543 94.5475 52.7332C94.9796 52.912 95.3631 53.192 95.6662 53.5498C96.2337 54.3546 96.5139 55.3288 96.4613 56.3141C96.4793 57.0044 96.3021 57.6856 95.9501 58.2784C95.6192 58.8215 95.1204 59.2405 94.5303 59.4713C94.6861 59.6133 94.8179 59.7797 94.9208 59.9641C95.037 60.1938 95.1344 60.4327 95.2118 60.6784L96.4045 63.8356H94.2748L93.1176 60.7998C93.0485 60.5959 92.9345 60.4103 92.784 60.257C92.6046 60.1353 92.3889 60.0797 92.1735 60.0998H90.5549V63.8356L88.4678 63.8213ZM90.5265 58.107H92.6562C93.1143 58.1344 93.5657 57.9864 93.9198 57.6927C94.094 57.502 94.2248 57.2754 94.3033 57.0287C94.3817 56.7821 94.4059 56.5211 94.3741 56.2641C94.4189 55.7684 94.277 55.2739 93.9766 54.8784C93.82 54.7221 93.6318 54.6017 93.4248 54.5252C93.2177 54.4488 92.9967 54.4182 92.7769 54.4356H90.5336L90.5265 58.107Z" fill="#333333"/>
<path d="M97.895 63.8213V52.5213H104.944V54.3642H99.975V57.2642H104.355V59.0856H99.9537V61.9999H104.923V63.8213H97.895Z" fill="#333333"/>
<path d="M106.073 63.8213V62.5927L111.043 54.4856H106.343V52.5213H113.726V53.9499L108.828 61.9856H113.797V63.807L106.073 63.8213Z" fill="#333333"/>
<path d="M118.106 64C117.515 64.0008 116.926 63.9482 116.345 63.8428C115.854 63.7548 115.376 63.601 114.925 63.3857V61.3C115.382 61.5127 115.857 61.6825 116.345 61.8071C116.844 61.9336 117.357 61.9983 117.871 62C118.404 62.0277 118.937 61.95 119.44 61.7714C119.628 61.6736 119.78 61.5189 119.876 61.3292C119.971 61.1395 120.005 60.9244 119.973 60.7143C119.988 60.4293 119.914 60.1468 119.76 59.9071C119.562 59.6657 119.305 59.481 119.014 59.3714C118.53 59.1649 118.035 58.986 117.531 58.8357C116.711 58.6328 115.962 58.2079 115.365 57.6071C114.919 57.0271 114.697 56.3037 114.741 55.5714C114.714 55.1268 114.788 54.682 114.957 54.2702C115.125 53.8583 115.384 53.49 115.713 53.1928C116.544 52.5769 117.566 52.2781 118.596 52.35C119.15 52.3455 119.703 52.3909 120.25 52.4857C120.671 52.5569 121.085 52.6693 121.485 52.8214V54.9071C120.66 54.5498 119.771 54.3651 118.872 54.3643C118.358 54.3434 117.844 54.4235 117.36 54.6C117.177 54.6869 117.026 54.8296 116.928 55.0077C116.83 55.1859 116.79 55.3906 116.814 55.5928C116.796 55.8469 116.866 56.0994 117.012 56.3071C117.204 56.5262 117.448 56.6912 117.722 56.7857C118.163 56.9682 118.613 57.1256 119.071 57.2571C119.738 57.4354 120.368 57.733 120.931 58.1357C121.334 58.4266 121.649 58.8248 121.84 59.2857C122.009 59.7424 122.094 60.2267 122.088 60.7143C122.106 61.1567 122.028 61.5977 121.86 62.007C121.692 62.4164 121.438 62.7843 121.116 63.0857C120.259 63.7548 119.187 64.0805 118.106 64Z" fill="#333333"/>
<path d="M123.522 63.8213V52.5213H125.588V63.8213H123.522Z" fill="#333333"/>
<path d="M127.32 63.8213V52.5213H129.386V57.3142L133.17 52.5213H135.534L131.984 57.0999L135.726 63.8213H133.525L130.685 58.6142L129.379 60.2427V63.8142L127.32 63.8213Z" fill="#333333"/>
<path d="M140.631 64.0001C137.446 64.0001 135.854 62.0763 135.854 58.2287C135.854 56.1572 136.251 54.6572 137.06 53.7358C138.037 52.8444 139.309 52.3506 140.628 52.3506C141.946 52.3506 143.218 52.8444 144.195 53.7358C145.004 54.6572 145.402 56.1572 145.402 58.2287C145.402 62.0715 143.811 63.9953 140.631 64.0001ZM140.631 61.9787C141.024 62.015 141.419 61.9493 141.78 61.788C142.14 61.6267 142.454 61.3751 142.69 61.0572C143.191 60.1937 143.419 59.1971 143.343 58.2001C143.434 57.1588 143.206 56.1144 142.69 55.2072C142.425 54.934 142.109 54.7169 141.76 54.5686C141.41 54.4203 141.035 54.3439 140.656 54.3439C140.277 54.3439 139.902 54.4203 139.552 54.5686C139.203 54.7169 138.887 54.934 138.622 55.2072C138.106 56.1144 137.878 57.1588 137.969 58.2001C137.893 59.1971 138.121 60.1937 138.622 61.0572C138.855 61.3666 139.16 61.6128 139.511 61.7737C139.862 61.9345 140.247 62.005 140.631 61.9787ZM138.324 51.3144V49.593H139.943V51.3144H138.324ZM141.313 51.3144V49.593H142.931V51.3144H141.313Z" fill="#333333"/>
<path d="M146.835 63.8213V52.5213H148.894V61.9999H153.736V63.8213H146.835Z" fill="#333333"/>
<path d="M155.468 63.8213V54.3499H152.451V52.5213H160.508V54.3499H157.498V63.8213H155.468Z" fill="#333333"/>
<path d="M164.384 63.9999C163.794 64.0014 163.204 63.9488 162.623 63.8427C162.132 63.7558 161.654 63.602 161.204 63.3856V61.2999C161.66 61.513 162.135 61.6828 162.623 61.807C163.123 61.9329 163.635 61.9977 164.15 61.9999C164.682 62.0276 165.215 61.9499 165.719 61.7713C165.908 61.6746 166.061 61.5204 166.158 61.3306C166.255 61.1408 166.29 60.9251 166.258 60.7142C166.274 60.4292 166.199 60.1467 166.045 59.907C165.857 59.6713 165.613 59.4871 165.335 59.3713C164.848 59.1662 164.35 58.9873 163.844 58.8356C163.038 58.6251 162.303 58.2008 161.715 57.607C161.268 57.027 161.046 56.3036 161.09 55.5713C161.061 55.1213 161.136 54.6708 161.308 54.2546C161.481 53.8384 161.746 53.4677 162.084 53.1713C162.914 52.5542 163.936 52.2553 164.966 52.3285C165.518 52.3241 166.069 52.3695 166.613 52.4642C167.035 52.5335 167.449 52.646 167.848 52.7999V54.8856C167.023 54.5275 166.134 54.3428 165.236 54.3427C164.724 54.3211 164.212 54.4012 163.731 54.5785C163.546 54.6634 163.392 54.8054 163.293 54.9839C163.193 55.1624 163.153 55.3681 163.177 55.5713C163.163 55.825 163.233 56.0761 163.376 56.2856C163.568 56.503 163.813 56.6676 164.086 56.7642C164.526 56.9467 164.976 57.1041 165.435 57.2356C166.102 57.4122 166.733 57.71 167.294 58.1142C167.669 58.4212 167.952 58.8267 168.111 59.2856C168.283 59.7418 168.37 60.2262 168.366 60.7142C168.384 61.1573 168.306 61.5991 168.137 62.0087C167.968 62.4183 167.712 62.7858 167.387 63.0856C166.533 63.7536 165.463 64.0793 164.384 63.9999Z" fill="#333333"/>
<path d="M169.801 63.8213V52.5213H176.85V54.3642H171.881V57.2642H176.303V59.0856H171.881V61.9999H176.85V63.8213H169.801ZM172.314 51.7499L173.535 48.4713H175.345L174.003 51.7499H172.314Z" fill="#333333"/>
<path d="M182.856 64.0001C182.16 64.0476 181.463 63.9383 180.814 63.68C180.166 63.4217 179.583 63.0211 179.108 62.5072C178.189 61.3315 177.732 59.8571 177.823 58.3644C177.733 56.7857 178.192 55.2248 179.122 53.9501C179.6 53.4019 180.197 52.9723 180.867 52.6947C181.536 52.4172 182.261 52.2992 182.984 52.3501C183.518 52.3449 184.053 52.3831 184.581 52.4644C185.045 52.5326 185.5 52.6524 185.937 52.8215V54.8572C185.504 54.6786 185.051 54.5516 184.588 54.4787C184.118 54.4058 183.644 54.3676 183.168 54.3644C182.705 54.3163 182.238 54.3814 181.805 54.5543C181.372 54.7271 180.988 55.0026 180.684 55.3572C180.137 56.259 179.889 57.3117 179.974 58.3644C179.974 60.7858 180.961 62.0001 182.948 62.0001C183.289 61.999 183.629 61.9655 183.964 61.9001C184.261 61.8429 184.554 61.7592 184.837 61.6501V59.0144H182.551V57.5072H186.576V63.0358C186.139 63.3279 185.66 63.5519 185.156 63.7001C184.41 63.9237 183.634 64.025 182.856 64.0001Z" fill="#333333"/>
<path d="M187.953 63.8213V52.5213H195.002V54.3642H190.033V57.2642H194.462V59.0856H190.033V61.9999H195.002V63.8213H187.953Z" fill="#333333"/>
<path d="M196.437 63.8213V52.5213H198.495V57.3142L202.279 52.5213H204.643L201.093 57.0999L204.828 63.8213H202.634L199.794 58.6142L198.481 60.2427V63.8142L196.437 63.8213Z" fill="#333333"/>
<path d="M209.619 63.8213V52.5213H216.668V54.3642H211.699V57.2642H216.122V59.0856H211.699V61.9999H216.668V63.8213H209.619Z" fill="#333333"/>
<path d="M218.102 63.8213V52.5213H220.161V61.9999H224.995V63.8213H218.102Z" fill="#333333"/>
<path d="M226.124 63.8213V52.5213H228.183V61.9999H233.024V63.8213H226.124Z" fill="#333333"/>
<path d="M234.153 63.8213V52.5213H241.202V54.3642H236.233V57.2642H240.656V59.0856H236.233V61.9999H241.202V63.8213H234.153Z" fill="#333333"/>
<path d="M242.636 63.8213V52.5213H244.418L249.075 60.0499V52.5213H251.134V63.8213H249.345L244.695 56.2927V63.8213H242.636Z" fill="#333333"/>
<path d="M76.9033 41.0287H252" stroke="#333333" stroke-width="2.97" stroke-miterlimit="10"/>
<path d="M77.6988 31.2714V12.9642H71.1606V7.05707H92.4576V12.9642H85.8981V31.2714H77.6988Z" fill="#333333"/>
<path d="M89.9795 31.2714L99.3857 7.05714H107.904L117.332 31.2714H108.813L106.939 26.4286H100.358L98.4983 31.2429L89.9795 31.2714ZM100.514 5.40714L104.014 0H110.325L106.485 5.40714H100.514ZM211.812 5.40714L215.305 0H221.616L217.783 5.40714H211.812ZM101.352 20.8214H105.952L103.645 14.9571L101.352 20.8214Z" fill="#333333"/>
<path d="M119.639 31.2714V7.05707H127.448L132.999 18.2285L138.501 7.05707H146.31V31.2714H138.153V20.9714L135.115 27.1428H130.856L127.782 20.9714V31.2714H119.639Z" fill="#333333"/>
<path d="M148.61 31.2714L158.002 7.05707H166.557L175.991 31.2714H167.472L165.57 26.4285H159.017L157.158 31.2428L148.61 31.2714ZM159.969 20.8214H164.569L162.248 14.9571L159.969 20.8214Z" fill="#333333"/>
<path d="M178.27 31.2715V7.0572H189.543C191.795 7.00216 194.033 7.41808 196.117 8.27863C197.92 9.07211 199.407 10.4501 200.341 12.1929C201.425 14.4101 201.936 16.8671 201.824 19.3358C201.824 23.5215 200.748 26.562 198.594 28.4572C196.441 30.3524 193.424 31.3048 189.543 31.3143L178.27 31.2715ZM186.448 25.1072H188.578C189.486 25.131 190.39 24.9782 191.24 24.6572C191.999 24.3313 192.606 23.7257 192.937 22.9643C193.389 21.7939 193.588 20.5397 193.519 19.2858C193.577 18.0483 193.396 16.8111 192.986 15.6429C192.839 15.2624 192.618 14.915 192.337 14.6208C192.055 14.3265 191.719 14.0913 191.346 13.9286C190.462 13.5866 189.518 13.4263 188.571 13.4572H186.441L186.448 25.1072Z" fill="#333333"/>
<path d="M201.271 31.2714L210.662 7.05707H219.224L228.651 31.2714H220.133L218.23 26.4285H211.656L209.789 31.2428L201.271 31.2714ZM212.629 20.8214H217.229L214.908 14.9571L212.629 20.8214Z" fill="#333333"/>
<path d="M238.235 31.65C236.61 31.6542 234.988 31.5156 233.387 31.2357C232.042 31.0173 230.732 30.6235 229.489 30.0643V23.75C230.754 24.3282 232.071 24.7827 233.422 25.1072C234.708 25.4367 236.028 25.6117 237.355 25.6286C238.147 25.6597 238.939 25.5583 239.698 25.3286C239.941 25.2622 240.155 25.1141 240.303 24.9089C240.452 24.7036 240.526 24.4536 240.514 24.2C240.514 23.5762 240.095 23.1191 239.257 22.8286L235.644 21.6072C234.297 21.1882 233.012 20.5875 231.825 19.8214C230.956 19.2491 230.264 18.4422 229.83 17.4929C229.395 16.4266 229.187 15.2806 229.22 14.1286C229.22 9.16668 232.705 6.68573 239.676 6.68573C240.597 6.69039 241.516 6.74523 242.431 6.85002C243.41 6.9643 244.347 7.10716 245.27 7.2643C246.048 7.39972 246.816 7.5834 247.57 7.8143V14.1643C246.42 13.7062 245.232 13.3477 244.021 13.0929C243.051 12.8901 242.065 12.7825 241.075 12.7714C240.266 12.7659 239.458 12.8352 238.661 12.9786C237.937 13.1214 237.575 13.4786 237.575 14.05C237.575 14.5286 237.894 14.8857 238.526 15.1214C239.158 15.3572 240.223 15.6857 241.721 16.0857C243.336 16.4656 244.874 17.1254 246.264 18.0357C247.206 18.6977 247.927 19.6317 248.33 20.7143C248.71 21.8335 248.895 23.0103 248.877 24.1929C248.904 25.2481 248.676 26.2943 248.212 27.2412C247.748 28.1881 247.063 29.0074 246.214 29.6286C244.44 30.9762 241.78 31.65 238.235 31.65Z" fill="#333333"/>
<path d="M47.5632 51.7856C47.5632 52.2716 47.42 52.7467 47.1517 53.1507C46.8833 53.5548 46.5019 53.8697 46.0557 54.0557C45.6095 54.2417 45.1185 54.2904 44.6448 54.1955C44.1711 54.1007 43.7359 53.8667 43.3944 53.5231C43.0529 53.1794 42.8203 52.7416 42.7261 52.265C42.6318 51.7883 42.6802 51.2943 42.865 50.8453C43.0499 50.3963 43.3629 50.0126 43.7645 49.7426C44.166 49.4726 44.6382 49.3285 45.1212 49.3285C45.7689 49.3285 46.39 49.5873 46.848 50.0482C47.306 50.509 47.5632 51.1339 47.5632 51.7856ZM56.5719 38.0213H62.5563V33.107H56.5719V38.0213ZM56.5719 24.507V29.4213H62.5563V24.507H56.5719ZM56.5719 46.6499H62.5563V41.707H56.5719V46.6499ZM52.9088 43.857C54.9844 45.9719 56.165 48.8136 56.2027 51.7856C56.129 54.7343 54.9131 57.5373 52.8143 59.5967C50.7155 61.656 47.9001 62.8086 44.9686 62.8086C42.037 62.8086 39.2216 61.656 37.1228 59.5967C35.024 57.5373 33.8081 54.7343 33.7344 51.7856C33.767 48.8076 34.945 45.9582 37.0212 43.8356V28.8356C37.0212 26.7177 37.8574 24.6865 39.3458 23.1889C40.8342 21.6912 42.853 20.8499 44.9579 20.8499C47.0628 20.8499 49.0816 21.6912 50.57 23.1889C52.0584 24.6865 52.8946 26.7177 52.8946 28.8356L52.9088 43.857ZM51.3186 51.7856C51.3047 50.8259 51.082 49.881 50.6663 49.0172C50.2505 48.1533 49.6517 47.3916 48.912 46.7856L48.0247 46.0713V28.807C48.0247 27.9924 47.7031 27.2112 47.1306 26.6352C46.5581 26.0592 45.7817 25.7356 44.9721 25.7356C44.1625 25.7356 43.3861 26.0592 42.8136 26.6352C42.2411 27.2112 41.9195 27.9924 41.9195 28.807V46.0642L41.0393 46.7785C40.3007 47.3855 39.7027 48.1474 39.287 49.011C38.8713 49.8746 38.6481 50.8191 38.6327 51.7785C38.6878 53.436 39.3809 55.0072 40.5658 56.1602C41.7506 57.3131 43.3344 57.9577 44.9828 57.9577C46.6311 57.9577 48.2149 57.3131 49.3997 56.1602C50.5846 55.0072 51.2777 53.436 51.3328 51.7785L51.3186 51.7856ZM13.4881 58.1713C13.1656 58.1742 12.8458 58.1127 12.547 57.9905C12.2483 57.8683 11.9765 57.6877 11.7475 57.4593C11.5185 57.2308 11.3367 56.959 11.2126 56.6595C11.0886 56.36 11.0247 56.0387 11.0247 55.7142V25.4285L31.2924 6.85704L41.1741 15.907H48.4364L31.2924 0.171326L0 28.8928L3.29393 32.5213L6.13353 29.9142V55.7142C6.13446 56.6844 6.32553 57.6448 6.69581 58.5406C7.06609 59.4364 7.60831 60.2499 8.29143 60.9346C8.97455 61.6193 9.78516 62.1617 10.6769 62.5308C11.5686 62.8999 12.5239 63.0884 13.4881 63.0856H33.4221C32.0472 61.6597 30.9408 59.9946 30.1565 58.1713H13.4881Z" fill="#333333"/>
</svg>
