<svg width="188" height="60" viewBox="0 0 188 60" fill="none" xmlns="http://www.w3.org/2000/svg">
<g clip-path="url(#clip0)">
<path d="M12.5802 26.0438C12.724 21.7636 13.6585 19.6949 16.7497 16.6274C19.8408 13.56 24.6573 13.0992 27.1819 13.0992C29.7066 13.0992 35.7279 14.4874 39.8973 14.202C44.0668 13.9167 46.2234 11.9977 46.2234 11.9977L46.3571 11.7481C41.2539 7.38287 34.7374 4.98726 28 4.99968C12.5357 4.99968 0 17.328 0 32.5353H14.2955C13.3005 30.9988 12.4796 29.0484 12.5802 26.0438Z" fill="#ED0000"/>
<path d="M47.2054 12.5002L47.086 12.7756C46.6116 18.0216 40.6162 20.4799 40.6162 20.4799C42.054 21.9066 42.4853 24.9027 42.4853 26.6148C42.4853 28.0101 42.1977 30.1644 40.8463 32.5357H56C56.0012 28.7755 55.2208 25.0554 53.7076 21.6081C52.1944 18.1608 49.9809 15.0602 47.2054 12.5002Z" fill="#ED0000"/>
<path d="M25.5198 26.3294C28.3953 22.6199 30.9833 22.3346 30.9833 22.3346C29.258 23.7613 27.6765 26.6147 27.1014 27.7561C26.5263 28.8975 26.0949 30.8949 26.2387 32.1789C26.252 32.2997 26.276 32.4191 26.3106 32.5356H32.1421C34.3102 31.0375 35.2936 28.4694 36.0125 25.7587C36.7313 23.0479 36.1563 18.3397 36.1563 18.3397C27.386 17.4837 24.3668 19.9091 22.929 20.7652C21.4913 21.6212 18.6158 25.0453 18.7596 30.1815C18.782 30.978 18.9037 31.7688 19.1219 32.5356H23.231C23.2683 30.7978 23.8075 28.5408 25.5198 26.3294Z" fill="#ED0000"/>
<path d="M28.2516 33.8197C28.9705 33.8197 29.9769 33.9623 32.145 32.4643C32.1781 32.4415 32.2083 32.4158 32.2399 32.3929H26.292C26.5623 33.4544 27.5888 33.8197 28.2516 33.8197Z" fill="#A00100" style="mix-blend-mode:multiply"/>
<path d="M40.8862 32.3929C40.5504 32.9898 40.1717 33.562 39.7533 34.105C37.4529 37.1011 32.5646 38.6705 28.9702 38.5278C25.3759 38.3852 24.2257 36.3878 23.6506 35.1037C23.4134 34.5744 23.2006 33.6071 23.2351 32.3929H19.103C19.7251 34.5776 21.0747 36.4887 22.9317 37.8145C22.9317 37.8145 19.6249 37.8145 19.9125 40.6679C20.2 43.5213 23.7944 43.8067 23.7944 43.8067C23.7944 43.8067 32.8521 44.092 35.2963 44.2347C37.7405 44.3774 40.1846 45.3761 41.6224 46.0894C43.0601 46.8028 44.7854 48.5149 45.2167 49.2282C45.648 49.9416 46.2706 52.9662 46.2706 52.9662L46.3281 53.2815C49.3611 50.7119 51.7964 47.5201 53.4662 43.9262C55.1359 40.3323 56.0003 36.4218 55.9998 32.4643C55.9998 32.44 55.9998 32.4172 55.9998 32.3929H40.8862Z" fill="#A00100" style="mix-blend-mode:multiply"/>
<path d="M32.8524 50.9403C31.4146 50.6549 22.8773 50.5422 22.8773 50.5422C22.8773 50.5422 17.4685 50.0843 14.8806 47.2308C12.2927 44.3774 12.5802 41.8335 12.5802 39.3839C12.5802 37.8145 15.5995 34.2477 15.5995 34.2477C15.1552 33.677 14.6836 33.0749 14.2494 32.3929H0C0 32.4172 0 32.44 0 32.4643C0 47.6717 12.5357 59.9999 28 59.9999C29.7764 59.9981 31.5488 59.831 33.2938 59.5006C34.576 58.902 35.667 57.964 36.4467 56.7898C36.4467 56.7898 37.4531 54.6497 36.7343 53.223C36.0154 51.7963 34.2901 51.2256 32.8524 50.9403Z" fill="#A00100" style="mix-blend-mode:multiply"/>
</g>
<path d="M75.6973 46.54V52.4463C74.9707 52.9209 74.2617 53.1582 73.5703 53.1582C72.3516 53.1582 71.3877 52.6162 70.6787 51.5322C69.9697 50.4482 69.6152 48.9395 69.6152 47.0059C69.6152 45.1016 69.958 43.5957 70.6436 42.4883C71.3291 41.375 72.2461 40.8184 73.3945 40.8184C74.0859 40.8184 74.8535 41.1055 75.6973 41.6797V43.332C74.8359 42.5527 74.0918 42.1631 73.4648 42.1631C71.9297 42.1631 71.1621 43.7773 71.1621 47.0059C71.1621 50.1523 71.9766 51.7256 73.6055 51.7256C73.7402 51.7256 73.9219 51.7051 74.1504 51.6641V47.9814H73.0869V46.54H75.6973ZM78.1093 53V40.9766H79.4013C80.4326 40.9766 81.2177 41.2812 81.7568 41.8906C82.3017 42.4941 82.5742 43.2998 82.5742 44.3076C82.5742 45.4502 82.1582 46.3086 81.3261 46.8828C81.9707 47.3398 82.5185 48.5557 82.9697 50.5303L83.5234 53H81.9062L81.4404 50.9258C81.1064 49.4727 80.8164 48.5498 80.5703 48.1572C80.3242 47.7588 80.0195 47.5801 79.6562 47.6211V53H78.1093ZM79.6562 46.1797H79.7265C80.5937 46.1797 81.0273 45.5732 81.0273 44.3604C81.0273 43.0713 80.5703 42.4238 79.6562 42.418V46.1797ZM85.206 53V40.9766H89.4862V42.418H86.7529V46.0127H89.2577V47.4541H86.7529V51.5586H89.6357V53H85.206ZM92.3026 53V40.9766H96.5829V42.418H93.8495V46.0127H96.3544V47.4541H93.8495V51.5586H96.7323V53H92.3026ZM99.4168 53V40.9766H100.674L103.337 48.3945H103.372V40.9766H104.796V53H103.539L100.876 45.5117H100.841V53H99.4168ZM114.014 53V40.9766H115.561V53H114.014ZM117.759 53L115.614 46.9004L117.31 40.9766H118.892L117.003 46.6982L119.358 53H117.759ZM120.9 53V40.9766H125.18V42.418H122.447V46.0127H124.952V47.4541H122.447V51.5586H125.33V53H120.9ZM128.014 53V40.9766H129.306C130.338 40.9766 131.123 41.2812 131.662 41.8906C132.207 42.4941 132.479 43.2998 132.479 44.3076C132.479 45.4502 132.063 46.3086 131.231 46.8828C131.876 47.3398 132.424 48.5557 132.875 50.5303L133.428 53H131.811L131.345 50.9258C131.011 49.4727 130.721 48.5498 130.475 48.1572C130.229 47.7588 129.924 47.5801 129.561 47.6211V53H128.014ZM129.561 46.1797H129.632C130.499 46.1797 130.932 45.5732 130.932 44.3604C130.932 43.0713 130.475 42.4238 129.561 42.418V46.1797ZM135.814 53V42.418H133.96V40.9766H139.215V42.418H137.37V53H135.814ZM141.012 53V40.9766H145.293V42.418H142.559V46.0127H145.064V47.4541H142.559V51.5586H145.442V53H141.012ZM142.647 40.1328L143.025 37.5049H144.739L143.464 40.1328H142.647ZM147.643 52.6924V51.0928C148.106 51.5381 148.554 51.7607 148.988 51.7607C149.31 51.7607 149.586 51.6465 149.814 51.418C150.043 51.1895 150.157 50.9141 150.157 50.5918C150.157 50.3164 150.092 49.9824 149.963 49.5898C149.835 49.1973 149.486 48.4736 148.918 47.4189C148.355 46.3584 147.989 45.5557 147.819 45.0107C147.649 44.4658 147.564 43.9854 147.564 43.5693C147.564 42.7607 147.793 42.1016 148.25 41.5918C148.712 41.0762 149.301 40.8184 150.016 40.8184C150.42 40.8184 150.851 40.9238 151.308 41.1348V42.5938C150.886 42.3418 150.526 42.2158 150.227 42.2158C149.448 42.2158 149.058 42.5996 149.058 43.3672C149.058 43.6484 149.123 43.9883 149.252 44.3867C149.386 44.7793 149.735 45.5 150.297 46.5488C150.866 47.5918 151.232 48.3887 151.396 48.9395C151.566 49.4844 151.651 49.9678 151.651 50.3896C151.651 51.21 151.419 51.8779 150.957 52.3936C150.5 52.9033 149.905 53.1582 149.172 53.1582C148.645 53.1582 148.135 53.0029 147.643 52.6924ZM152.956 53L155.724 42.418H153.281V40.9766H157.631L154.863 51.5586H157.631V53H152.956ZM166.077 53V40.9766H167.623V53H166.077ZM169.821 53L167.676 46.9004L169.372 40.9766H170.955L169.065 46.6982L171.42 53H169.821ZM172.962 53V40.9766H176.706V42.418H174.509V45.9951H176.557V47.4365H174.509V53H172.962ZM180.34 53V42.418H178.486V40.9766H183.742V42.418H181.896V53H180.34ZM185.108 52.1738C185.108 51.9043 185.204 51.6758 185.398 51.4883C185.591 51.2949 185.823 51.1982 186.092 51.1982C186.362 51.1982 186.59 51.2949 186.778 51.4883C186.971 51.6758 187.068 51.9043 187.068 52.1738C187.068 52.4434 186.971 52.6748 186.778 52.8682C186.59 53.0615 186.362 53.1582 186.092 53.1582C185.823 53.1582 185.591 53.0615 185.398 52.8682C185.204 52.6748 185.108 52.4434 185.108 52.1738Z" fill="#A00100" style="mix-blend-mode:multiply"/>
<path d="M79.9062 20.5156V31.0156C78.6146 31.8594 77.3542 32.2812 76.125 32.2812C73.9583 32.2812 72.2448 31.3177 70.9844 29.3906C69.724 27.4635 69.0938 24.7812 69.0938 21.3438C69.0938 17.9583 69.7031 15.2812 70.9219 13.3125C72.1406 11.3333 73.7708 10.3438 75.8125 10.3438C77.0417 10.3438 78.4062 10.8542 79.9062 11.875V14.8125C78.375 13.4271 77.0521 12.7344 75.9375 12.7344C73.2083 12.7344 71.8438 15.6042 71.8438 21.3438C71.8438 26.9375 73.2917 29.7344 76.1875 29.7344C76.4271 29.7344 76.75 29.6979 77.1562 29.625V23.0781H75.2656V20.5156H79.9062ZM91.1625 32L95.1938 10.5H98.0531L102.053 32H99.3969L98.6313 27.2656H94.6625L93.8188 32H91.1625ZM95.0688 24.7031H98.1469L96.6469 15.75H96.5688L95.0688 24.7031ZM95.5531 9.125L96.225 4.45312H99.2719L97.0063 9.125H95.5531ZM112.403 32L117.325 13.1875H112.981V10.625H120.716L115.794 29.4375H120.716V32H112.403ZM132.753 32V10.625H135.503V32H132.753ZM139.409 32L135.597 21.1562L138.613 10.625H141.425L138.066 20.7969L142.253 32H139.409ZM153.634 32V10.625H161.244V13.1875H156.384V19.5781H160.838V22.1406H156.384V29.4375H161.509V32H153.634ZM174.922 32V10.625H177.219C179.052 10.625 180.448 11.1667 181.406 12.25C182.375 13.3229 182.859 14.7552 182.859 16.5469C182.859 18.5781 182.12 20.1042 180.641 21.125C181.786 21.9375 182.76 24.099 183.562 27.6094L184.547 32H181.672L180.844 28.3125C180.25 25.7292 179.734 24.0885 179.297 23.3906C178.859 22.6823 178.318 22.3646 177.672 22.4375V32H174.922ZM177.672 19.875H177.797C179.339 19.875 180.109 18.7969 180.109 16.6406C180.109 14.349 179.297 13.1979 177.672 13.1875V19.875Z" fill="#A00100" style="mix-blend-mode:multiply"/>
<defs>
<clipPath id="clip0">
<rect width="56" height="55" fill="white" transform="translate(0 5)"/>
</clipPath>
</defs>
</svg>
