<svg width="140" height="140" viewBox="0 0 140 140" fill="none" xmlns="http://www.w3.org/2000/svg">
<path d="M93.5029 89.7853C90.1858 89.7853 87.4873 87.4496 87.4873 84.5788C87.4873 81.7077 90.1858 79.372 93.5029 79.372C96.82 79.372 99.5185 81.7077 99.5185 84.5788C99.5185 86.0887 100.743 87.3132 102.253 87.3132C103.763 87.3132 104.987 86.0887 104.987 84.5788C104.987 79.5681 101.254 75.355 96.2373 74.2115V72.7893C96.2373 71.2794 95.0128 70.0549 93.5029 70.0549C91.993 70.0549 90.7685 71.2794 90.7685 72.7893V74.2115C85.7521 75.355 82.0186 79.5681 82.0186 84.5788C82.0186 90.4651 87.1704 95.2541 93.5029 95.2541C96.82 95.2541 99.5185 97.5898 99.5185 100.461C99.5185 103.332 96.82 105.668 93.5029 105.668C90.1858 105.668 87.4873 103.332 87.4873 100.461C87.4873 98.9509 86.2628 97.7265 84.7529 97.7265C83.243 97.7265 82.0186 98.9509 82.0186 100.461C82.0186 105.472 85.7521 109.685 90.7685 110.828V112.009C90.7685 113.519 91.993 114.744 93.5029 114.744C95.0128 114.744 96.2373 113.519 96.2373 112.009V110.828C101.254 109.685 104.987 105.472 104.987 100.461C104.987 94.5743 99.8354 89.7853 93.5029 89.7853Z" fill="white"/>
<path d="M123.452 73.5207C119.88 67.9548 114.848 63.5011 108.899 60.6415C107.537 59.9869 105.904 60.56 105.25 61.9212C104.595 63.2823 105.168 64.9159 106.529 65.5702C116.896 70.5533 123.593 81.2007 123.593 92.6954C123.593 97.614 122.381 102.492 120.088 106.802C119.378 108.135 119.884 109.791 121.217 110.501C121.626 110.718 122.066 110.822 122.499 110.822C123.478 110.822 124.424 110.295 124.916 109.371C127.628 104.273 129.062 98.5065 129.062 92.6954C129.062 85.8704 127.122 79.2399 123.452 73.5207Z" fill="white"/>
<path d="M97.8012 57.149L97.6172 57.1487C96.1073 57.1487 94.8828 58.3729 94.8828 59.883C94.8828 61.3932 96.1073 62.6174 97.6172 62.6174L97.7755 62.6177C97.7799 62.6177 97.784 62.6177 97.7886 62.6177C99.2928 62.6177 100.516 61.402 100.523 59.8962C100.53 58.386 99.3111 57.1561 97.8012 57.149Z" fill="white"/>
<path d="M80.5018 119.821C70.1358 114.837 63.438 104.19 63.438 92.6954C63.438 87.7768 64.6504 82.899 66.9437 78.5885C67.653 77.2555 67.1474 75.5996 65.8141 74.8903C64.4814 74.181 62.8249 74.6866 62.1159 76.0199C59.4031 81.1181 57.9692 86.8843 57.9692 92.6954C57.9692 99.5204 59.9093 106.151 63.5796 111.87C67.1515 117.436 72.1839 121.89 78.1325 124.75C78.5145 124.933 78.9181 125.02 79.3154 125.02C80.3336 125.02 81.3109 124.449 81.7818 123.47C82.4356 122.109 81.863 120.475 80.5018 119.821Z" fill="white"/>
<path d="M89.4143 122.773L89.256 122.773C87.739 122.77 86.5161 123.984 86.5093 125.494C86.5022 127.005 87.7212 128.234 89.2311 128.242L89.4143 128.242C90.9242 128.242 92.1487 127.018 92.1487 125.508C92.1487 123.998 90.9242 122.773 89.4143 122.773Z" fill="white"/>
<path d="M105.932 47.8974C105.599 47.1044 105.191 46.3571 104.717 45.664H111.836C118.771 45.664 124.414 40.0213 124.414 33.0859C124.414 26.1504 118.771 20.5078 111.836 20.5078H89.9389C91.331 18.4838 92.1483 16.0352 92.1483 13.3984C92.1483 6.46296 86.5056 0.820312 79.5702 0.820312H12.5781C5.64265 0.820312 0 6.46296 0 13.3984C0 20.3339 5.64265 25.9765 12.5781 25.9765H34.4749C33.0829 28.0005 32.2656 30.4491 32.2656 33.0859C32.2656 35.7226 33.0826 38.1713 34.4749 40.1952H27.3437C20.4082 40.1952 14.7656 45.8379 14.7656 52.7733C14.7656 56.7565 16.6288 60.3109 19.5275 62.6171C16.6288 64.9232 14.7656 68.4776 14.7656 72.4608C14.7656 76.444 16.6288 79.9984 19.5275 82.3045C16.6288 84.6107 14.7656 88.1651 14.7656 92.1483C14.7656 96.1314 16.6288 99.6858 19.5275 101.992C16.6288 104.298 14.7656 107.853 14.7656 111.836C14.7656 118.771 20.4082 124.414 27.3437 124.414H59.5683C68.0574 133.494 80.134 139.18 93.5157 139.18C119.147 139.18 140 118.327 140 92.6954C140 71.3627 125.554 53.3429 105.932 47.8974ZM111.836 25.9765C115.756 25.9765 118.945 29.1659 118.945 33.0859C118.945 37.0059 115.756 40.1952 111.836 40.1952H94.3358H44.8437C40.9234 40.1952 37.7343 37.0059 37.7343 33.0859C37.7343 29.1659 40.9234 25.9765 44.8437 25.9765H111.836ZM12.5781 20.5078C8.65784 20.5078 5.46874 17.3184 5.46874 13.3984C5.46874 9.47842 8.65784 6.28905 12.5781 6.28905H79.5702C83.4904 6.28905 86.6795 9.47842 86.6795 13.3984C86.6795 17.3184 83.4904 20.5078 79.5702 20.5078H12.5781ZM27.3437 45.664H94.3358C95.4372 45.664 96.4918 45.9199 97.4379 46.3782C96.1445 46.2696 94.837 46.2111 93.5157 46.2111C80.6792 46.2111 69.0417 51.4417 60.6215 59.8827H27.3437C23.4237 59.8827 20.2343 56.6933 20.2343 52.7733C20.2343 48.8533 23.4237 45.664 27.3437 45.664ZM27.3437 65.3514H55.9493C52.8453 69.6042 50.4453 74.4008 48.9212 79.5702H27.3437C23.4234 79.5702 20.2343 76.3811 20.2343 72.4608C20.2343 68.5408 23.4234 65.3514 27.3437 65.3514ZM27.3437 85.0389H47.6655C47.2507 87.5307 47.0314 90.0876 47.0314 92.6954C47.0314 94.9228 47.1925 97.1131 47.4968 99.2576H27.3437C23.4234 99.2576 20.2343 96.0685 20.2343 92.1483C20.2343 88.228 23.4234 85.0389 27.3437 85.0389ZM27.3437 118.945C23.4234 118.945 20.2343 115.756 20.2343 111.836C20.2343 107.915 23.4234 104.726 27.3437 104.726H48.6133C49.993 109.871 52.2344 114.665 55.1738 118.945H27.3437ZM93.5157 133.711C70.8998 133.711 52.5002 115.311 52.5002 92.6954C52.5002 70.0794 70.8998 51.6799 93.5157 51.6799C116.132 51.6799 134.531 70.0794 134.531 92.6954C134.531 115.311 116.132 133.711 93.5157 133.711Z" fill="white"/>
</svg>
