<svg width="368" height="331" viewBox="0 0 368 331" fill="none" xmlns="http://www.w3.org/2000/svg">
<path d="M158.983 246.76H159.138C162.518 258.468 170.518 268.913 178.139 268.913C185.68 268.913 193.524 258.428 196.933 246.74C197.051 246.756 197.171 246.764 197.291 246.764C199.417 246.764 201.141 244.329 201.141 241.324C201.141 239.009 200.118 237.028 198.673 236.247C198.673 235.9 198.673 235.558 198.673 235.215C198.673 219.98 192.899 213.735 178.123 213.735C163.347 213.735 157.458 220.434 157.458 235.653C157.458 235.868 157.458 236.084 157.458 236.299C156.076 237.124 155.108 239.056 155.108 241.308C155.132 244.325 156.856 246.76 158.983 246.76Z" fill="#720100"/>
<path d="M223.578 291.616L223.479 289.388C223.209 287.59 222.49 285.888 221.389 284.442C220.288 282.995 218.84 281.849 217.18 281.111H217.204C217.204 281.111 195.631 269.662 177.561 269.953C161.487 270.192 142.761 279.118 138.823 281.067C137.127 281.792 135.645 282.938 134.517 284.398C133.39 285.858 132.654 287.583 132.381 289.408L132.285 291.636L223.578 291.616Z" fill="#720100"/>
<path d="M177.932 331C138.437 331 106.312 298.84 106.312 259.312C106.312 219.785 138.445 187.625 177.94 187.625C217.435 187.625 249.567 219.785 249.567 259.312C249.567 298.84 217.427 331 177.932 331ZM177.932 200.895C145.748 200.895 119.568 227.101 119.568 259.312C119.568 291.524 145.732 317.726 177.932 317.726C210.132 317.726 236.3 291.52 236.3 259.312C236.3 227.105 210.116 200.895 177.932 200.895Z" fill="#720100"/>
<path d="M52.6784 59.1344H52.8337C56.2142 70.8426 64.2095 81.2874 71.8346 81.2874C79.376 81.2874 87.22 70.8027 90.6284 59.1145C90.7472 59.1304 90.8669 59.1384 90.9867 59.1384C93.113 59.1384 94.8371 56.7035 94.8371 53.6988C94.8371 51.3835 93.8098 49.4069 92.3684 48.6218C92.3684 48.2751 92.3684 47.9324 92.3684 47.5937C92.3684 32.3548 86.5909 26.1141 71.8186 26.1141C57.0464 26.1141 51.1534 32.8091 51.1534 48.032C51.1534 48.2472 51.1534 48.4624 51.1534 48.6776C49.7718 49.5065 48.8042 51.4353 48.8042 53.6868C48.8281 56.6996 50.5681 59.1344 52.6784 59.1344Z" fill="#720100"/>
<path d="M117.274 104.01L117.174 101.779C116.904 99.9804 116.186 98.2791 115.085 96.8324C113.984 95.3856 112.536 94.2401 110.875 93.5018H110.899C110.899 93.5018 89.3261 82.0367 71.2729 82.3077C55.1986 82.5468 36.4725 91.4734 32.5306 93.4221C30.8358 94.1474 29.3544 95.2945 28.2275 96.7544C27.1006 98.2143 26.3655 99.9384 26.0921 101.763L25.9966 103.994L117.274 104.01Z" fill="#720100"/>
<path d="M71.6274 143.375C32.1326 143.375 0 111.215 0 71.6874C0 32.1595 32.1326 0 71.6274 0C111.122 0 143.255 32.1595 143.255 71.6874C143.255 111.215 111.122 143.375 71.6274 143.375ZM71.6274 13.2703C39.4431 13.2703 13.2592 39.4761 13.2592 71.6874C13.2592 103.899 39.4431 130.105 71.6274 130.105C103.812 130.105 129.996 103.899 129.996 71.6874C129.996 39.4761 103.812 13.2703 71.6274 13.2703Z" fill="#720100"/>
<path d="M277.424 59.1344H277.579C280.959 70.8426 288.959 81.2874 296.58 81.2874C304.121 81.2874 311.965 70.8027 315.373 59.1145C315.492 59.1304 315.612 59.1384 315.732 59.1384C317.858 59.1384 319.582 56.7035 319.582 53.6988C319.582 51.3835 318.559 49.4069 317.114 48.6218C317.114 48.2751 317.114 47.9324 317.114 47.5937C317.114 32.3548 311.34 26.1141 296.564 26.1141C281.788 26.1141 275.899 32.8091 275.899 48.032C275.899 48.2472 275.899 48.4624 275.899 48.6776C274.517 49.5065 273.549 51.4353 273.549 53.6868C273.573 56.6996 275.297 59.1344 277.424 59.1344Z" fill="#720100"/>
<path d="M342.031 104.01L341.927 101.779C341.657 99.9803 340.939 98.279 339.838 96.8323C338.737 95.3856 337.289 94.2401 335.628 93.5017H335.66C335.66 93.5017 314.087 82.0526 296.018 82.3236C279.944 82.5627 261.218 91.4892 257.28 93.4379C255.584 94.1624 254.102 95.3092 252.974 96.7691C251.846 98.2291 251.111 99.9537 250.837 101.779L250.742 104.01H342.031Z" fill="#720100"/>
<path d="M296.373 143.375C256.878 143.375 224.745 111.215 224.745 71.6874C224.745 32.1595 256.878 0 296.373 0C335.867 0 368 32.1595 368 71.6874C368 111.215 335.871 143.375 296.373 143.375ZM296.373 13.2703C264.192 13.2703 238.008 39.4761 238.008 71.6874C238.008 103.899 264.192 130.105 296.373 130.105C328.553 130.105 354.741 103.899 354.741 71.6874C354.741 39.4761 328.557 13.2703 296.373 13.2703Z" fill="#720100"/>
<path d="M183.065 142.363C181.635 142.364 180.243 141.904 179.097 141.049C177.95 140.195 177.11 138.992 176.702 137.621C176.294 136.25 176.34 134.783 176.833 133.44C177.326 132.097 178.239 130.949 179.437 130.168L217.53 105.313C218.26 104.838 219.076 104.51 219.932 104.35C220.788 104.189 221.667 104.199 222.519 104.379C223.371 104.559 224.179 104.904 224.898 105.397C225.616 105.889 226.231 106.518 226.706 107.248C227.182 107.978 227.509 108.795 227.669 109.652C227.83 110.508 227.82 111.388 227.64 112.241C227.461 113.094 227.115 113.903 226.623 114.622C226.131 115.341 225.503 115.956 224.773 116.432L186.68 141.287C185.605 141.99 184.349 142.364 183.065 142.363Z" fill="#720100"/>
<path d="M182.996 184.485C181.238 184.48 179.553 183.776 178.313 182.528C177.073 181.28 176.379 179.59 176.383 177.83L176.506 132.32C176.51 130.563 177.211 128.88 178.454 127.639C179.696 126.398 181.38 125.701 183.136 125.701H183.16C184.031 125.703 184.892 125.877 185.696 126.213C186.499 126.548 187.229 127.039 187.843 127.657C188.457 128.276 188.943 129.009 189.273 129.815C189.604 130.621 189.773 131.485 189.769 132.356L189.65 177.866C189.647 178.738 189.473 179.6 189.137 180.405C188.802 181.209 188.311 181.94 187.693 182.554C187.075 183.169 186.342 183.656 185.537 183.987C184.731 184.318 183.868 184.488 182.996 184.485Z" fill="#720100"/>
<path d="M183.052 142.363C181.768 142.363 180.512 141.99 179.437 141.287L141.352 116.432C140.622 115.956 139.994 115.341 139.502 114.622C139.01 113.902 138.664 113.093 138.485 112.241C138.305 111.388 138.295 110.508 138.456 109.651C138.616 108.795 138.943 107.978 139.419 107.248C139.894 106.518 140.509 105.889 141.227 105.397C141.946 104.904 142.754 104.558 143.606 104.379C145.327 104.016 147.121 104.352 148.594 105.313L186.688 130.168C187.885 130.949 188.799 132.097 189.292 133.44C189.784 134.783 189.83 136.249 189.422 137.621C189.015 138.992 188.175 140.195 187.028 141.049C185.882 141.904 184.49 142.364 183.06 142.363H183.052Z" fill="#720100"/>
</svg>
