<svg width="140" height="140" viewBox="0 0 140 140" fill="none" xmlns="http://www.w3.org/2000/svg">
<path d="M137.813 70C137.812 83.4119 133.835 96.5225 126.384 107.674C118.932 118.825 108.342 127.517 95.9506 132.649C83.5597 137.782 69.9251 139.125 56.7709 136.508C43.6167 133.892 31.5338 127.434 22.0501 117.95C10.8469 106.745 3.92007 91.9722 2.47161 76.1939C1.02314 60.4156 5.14446 44.6281 14.1204 31.5711C14.2807 31.3283 14.4878 31.1198 14.7297 30.958C14.9715 30.7962 15.2432 30.6843 15.5289 30.6288C15.8145 30.5733 16.1084 30.5753 16.3932 30.6348C16.6781 30.6943 16.9482 30.81 17.1878 30.9752C17.4273 31.1403 17.6315 31.3516 17.7884 31.5967C17.9453 31.8418 18.0517 32.1157 18.1014 32.4024C18.1511 32.6891 18.1432 32.9829 18.0779 33.2665C18.0127 33.55 17.8915 33.8178 17.7216 34.0539C8.7581 47.0913 4.98956 63.0075 7.15524 78.68C9.32092 94.3525 17.2645 108.65 29.4277 118.768C41.5909 128.886 57.0957 134.094 72.9006 133.371C88.7055 132.647 103.67 126.044 114.858 114.857C125.994 103.717 132.589 88.8323 133.357 73.0988C134.125 57.3653 129.013 41.9086 119.015 29.7362C109.017 17.5638 94.8474 9.54627 79.2644 7.24365C63.6813 4.94102 47.7989 8.51798 34.7075 17.2786L38.1692 21.3965L23.1356 24.0625L28.3419 9.70981L31.8774 13.9153C42.0716 6.98679 53.9613 2.96764 66.2684 2.28987C78.5755 1.61211 90.8346 4.30137 101.728 10.0686C112.621 15.8358 121.737 24.4628 128.095 35.0222C134.452 45.5817 137.812 57.6743 137.813 70Z" fill="white"/>
<path d="M70 124.688C100.155 124.688 124.688 100.155 124.688 70C124.688 39.8453 100.155 15.3125 70 15.3125C39.8453 15.3125 15.3125 39.8453 15.3125 70C15.3125 100.155 39.8453 124.688 70 124.688ZM70 19.6875C97.7424 19.6875 120.312 42.2576 120.312 70C120.312 97.7424 97.7424 120.312 70 120.312C42.2576 120.312 19.6875 97.7424 19.6875 70C19.6875 42.2576 42.2576 19.6875 70 19.6875Z" fill="white"/>
<path d="M70 28.4375C70.5802 28.4375 71.1366 28.207 71.5468 27.7968C71.957 27.3866 72.1875 26.8302 72.1875 26.25V24.0625C72.1875 23.4823 71.957 22.9259 71.5468 22.5157C71.1366 22.1055 70.5802 21.875 70 21.875C69.4198 21.875 68.8634 22.1055 68.4532 22.5157C68.043 22.9259 67.8125 23.4823 67.8125 24.0625V26.25C67.8125 26.8302 68.043 27.3866 68.4532 27.7968C68.8634 28.207 69.4198 28.4375 70 28.4375Z" fill="white"/>
<path d="M70 111.562C69.4198 111.562 68.8634 111.793 68.4532 112.203C68.043 112.613 67.8125 113.17 67.8125 113.75V115.938C67.8125 116.518 68.043 117.074 68.4532 117.484C68.8634 117.895 69.4198 118.125 70 118.125C70.5802 118.125 71.1366 117.895 71.5468 117.484C71.957 117.074 72.1875 116.518 72.1875 115.938V113.75C72.1875 113.17 71.957 112.613 71.5468 112.203C71.1366 111.793 70.5802 111.562 70 111.562Z" fill="white"/>
<path d="M113.75 72.1875H115.938C116.518 72.1875 117.074 71.957 117.484 71.5468C117.895 71.1366 118.125 70.5802 118.125 70C118.125 69.4198 117.895 68.8634 117.484 68.4532C117.074 68.043 116.518 67.8125 115.938 67.8125H113.75C113.17 67.8125 112.613 68.043 112.203 68.4532C111.793 68.8634 111.562 69.4198 111.562 70C111.562 70.5802 111.793 71.1366 112.203 71.5468C112.613 71.957 113.17 72.1875 113.75 72.1875Z" fill="white"/>
<path d="M24.0625 72.1875H26.25C26.8302 72.1875 27.3866 71.957 27.7968 71.5468C28.207 71.1366 28.4375 70.5802 28.4375 70C28.4375 69.4198 28.207 68.8634 27.7968 68.4532C27.3866 68.043 26.8302 67.8125 26.25 67.8125H24.0625C23.4823 67.8125 22.9259 68.043 22.5157 68.4532C22.1055 68.8634 21.875 69.4198 21.875 70C21.875 70.5802 22.1055 71.1366 22.5157 71.5468C22.9259 71.957 23.4823 72.1875 24.0625 72.1875Z" fill="white"/>
<path d="M100.936 41.2516C101.223 41.252 101.508 41.1956 101.773 41.0856C102.039 40.9757 102.28 40.8144 102.483 40.611L104.03 39.0641C104.236 38.8619 104.401 38.6206 104.514 38.3542C104.627 38.0879 104.686 37.8018 104.688 37.5124C104.689 37.2231 104.634 36.9363 104.524 36.6687C104.414 36.4011 104.252 36.1579 104.047 35.9533C103.843 35.7487 103.599 35.5867 103.332 35.4768C103.064 35.3668 102.778 35.3109 102.488 35.3125C102.199 35.3141 101.913 35.3731 101.646 35.486C101.38 35.599 101.139 35.7636 100.936 35.9705L99.3893 37.5173C99.0833 37.8232 98.875 38.213 98.7906 38.6374C98.7062 39.0617 98.7495 39.5016 98.9151 39.9013C99.0806 40.301 99.361 40.6426 99.7208 40.883C100.081 41.1234 100.503 41.2517 100.936 41.2516Z" fill="white"/>
<path d="M37.5172 104.67C37.8045 104.671 38.0891 104.614 38.3545 104.504C38.62 104.394 38.8611 104.233 39.064 104.03L40.6111 102.483C40.8143 102.28 40.9754 102.038 41.0854 101.773C41.1953 101.508 41.2519 101.223 41.2519 100.936C41.2519 100.648 41.1953 100.364 41.0854 100.099C40.9754 99.8331 40.8143 99.592 40.6111 99.3888C40.408 99.1857 40.1668 99.0245 39.9014 98.9146C39.6359 98.8046 39.3514 98.748 39.0641 98.748C38.7768 98.748 38.4924 98.8046 38.2269 98.9146C37.9615 99.0245 37.7203 99.1857 37.5172 99.3888L35.9703 100.936C35.6644 101.242 35.456 101.632 35.3716 102.056C35.2872 102.48 35.3305 102.92 35.4961 103.32C35.6617 103.72 35.9421 104.061 36.3018 104.302C36.6616 104.542 37.0845 104.67 37.5172 104.67Z" fill="white"/>
<path d="M102.483 99.3888C102.28 99.1857 102.038 99.0245 101.773 98.9146C101.508 98.8046 101.223 98.748 100.936 98.748C100.648 98.748 100.364 98.8046 100.099 98.9146C99.8331 99.0245 99.592 99.1857 99.3888 99.3888C99.1857 99.592 99.0245 99.8331 98.9146 100.099C98.8046 100.364 98.748 100.648 98.748 100.936C98.748 101.223 98.8046 101.508 98.9146 101.773C99.0245 102.038 99.1857 102.28 99.3888 102.483L100.936 104.03C101.346 104.44 101.903 104.67 102.483 104.67C103.063 104.67 103.619 104.44 104.03 104.03C104.44 103.619 104.67 103.063 104.67 102.483C104.67 101.903 104.44 101.346 104.03 100.936L102.483 99.3888Z" fill="white"/>
<path d="M37.5176 40.611C37.7203 40.8161 37.9615 40.9792 38.2275 41.0907C38.4934 41.2023 38.7787 41.2602 39.0671 41.261C39.3555 41.2619 39.6412 41.2057 39.9078 41.0958C40.1744 40.9858 40.4166 40.8242 40.6205 40.6203C40.8244 40.4163 40.986 40.1741 41.096 39.9075C41.2059 39.6409 41.2621 39.3552 41.2612 39.0668C41.2603 38.7784 41.2024 38.4931 41.0908 38.2271C40.9792 37.9612 40.8161 37.72 40.611 37.5173L39.0639 35.9705C38.8616 35.7636 38.6202 35.599 38.3539 35.486C38.0875 35.3731 37.8014 35.3141 37.512 35.3125C37.2227 35.3109 36.936 35.3668 36.6684 35.4768C36.4008 35.5867 36.1576 35.7487 35.9531 35.9533C35.7485 36.1579 35.5866 36.4011 35.4766 36.6687C35.3667 36.9363 35.3109 37.2231 35.3125 37.5124C35.3142 37.8018 35.3732 38.0879 35.4862 38.3542C35.5992 38.6206 35.7639 38.8619 35.9707 39.0641L37.5176 40.611Z" fill="white"/>
<path d="M37.6956 77.1485L56.4222 95.8749C56.6253 96.078 56.8665 96.2392 57.1319 96.3491C57.3973 96.459 57.6818 96.5156 57.969 96.5156C58.2563 96.5156 58.5408 96.459 58.8062 96.3491C59.0716 96.2392 59.3127 96.078 59.5159 95.8749L102.305 53.086C102.508 52.8829 102.669 52.6417 102.779 52.3763C102.889 52.1109 102.946 51.8264 102.946 51.5391C102.946 51.2517 102.889 50.9673 102.779 50.7018C102.669 50.4364 102.508 50.1952 102.305 49.9921L97.6645 45.3516C97.4614 45.1484 97.2202 44.9872 96.9548 44.8773C96.6893 44.7673 96.4048 44.7107 96.1175 44.7107C95.8302 44.7107 95.5457 44.7673 95.2803 44.8773C95.0149 44.9872 94.7737 45.1484 94.5706 45.3516L57.969 81.9536L45.43 69.4141C45.2269 69.2109 44.9857 69.0497 44.7203 68.9398C44.4549 68.8298 44.1704 68.7732 43.883 68.7732C43.5957 68.7732 43.3112 68.8298 43.0458 68.9398C42.7804 69.0497 42.5392 69.2109 42.3361 69.4141L37.6956 74.0546C37.4924 74.2577 37.3312 74.4989 37.2212 74.7643C37.1113 75.0298 37.0547 75.3142 37.0547 75.6016C37.0547 75.8889 37.1113 76.1734 37.2212 76.4388C37.3312 76.7042 37.4924 76.9454 37.6956 77.1485ZM43.8829 74.0546L56.4222 86.5942C56.6253 86.7973 56.8665 86.9584 57.1319 87.0684C57.3973 87.1783 57.6818 87.2349 57.969 87.2349C58.2563 87.2349 58.5408 87.1783 58.8062 87.0684C59.0716 86.9584 59.3127 86.7973 59.5159 86.5942L96.1177 49.9921L97.6645 51.5389L57.969 91.2344L42.3361 75.6014L43.8829 74.0546Z" fill="white"/>
</svg>
